
  <svg width="441.75" height="160.5" viewBox="0 0 2356 856" fill="none" xmlns="http://www.w3.org/2000/svg" xmlns:xlink="http://www.w3.org/1999/xlink" version="1.1">
    
        <g transform="translate(0, 0)">
          <svg width="256" height="256" viewBox="0 0 256 256" fill="none" xmlns="http://www.w3.org/2000/svg">
<rect width="256" height="256" rx="60" fill="#470137"/>
<path d="M134.239 80.2153L104.239 129.715L136.239 182.215C136.439 182.615 136.539 183.015 136.439 183.415C136.339 183.815 135.939 183.515 135.339 183.615H112.439C110.839 183.615 109.739 183.515 109.039 182.515C106.939 178.315 104.739 174.215 102.639 170.015C100.539 165.915 98.2392 161.715 95.8392 157.415C93.4392 153.115 91.0392 148.815 88.6392 144.415H88.4392C86.3392 148.715 84.0392 153.015 81.7392 157.315C79.4392 161.615 77.1392 165.915 74.9392 170.115C72.6392 174.315 70.3392 178.615 68.0392 182.715C67.6392 183.715 66.8392 183.815 65.7392 183.815H43.7392C43.3392 183.815 43.0392 184.015 43.0392 183.515C42.9392 183.115 43.0392 182.715 43.2392 182.415L74.3392 131.415L44.0392 80.1153C43.7392 79.7153 43.6392 79.3153 43.8392 79.1153C44.0392 78.8153 44.4392 78.7153 44.8392 78.7153H67.5392C68.0392 78.7153 68.5392 78.8153 68.9392 78.9153C69.3392 79.1153 69.6392 79.4153 69.9392 79.8153C71.8392 84.1153 74.0392 88.4153 76.3392 92.7153C78.7392 97.0153 81.0392 101.215 83.5392 105.415C85.9392 109.615 88.1392 113.815 90.2392 118.115H90.4392C92.5392 113.715 94.7392 109.415 96.9392 105.215C99.1392 101.015 101.439 96.8153 103.739 92.6153C106.039 88.4153 108.239 84.1153 110.439 80.0153C110.539 79.6153 110.739 79.2153 111.039 79.0153C111.439 78.8153 111.839 78.7153 112.339 78.8153H133.439C133.939 78.7153 134.439 79.0153 134.539 79.5153C134.639 79.6153 134.439 80.0153 134.239 80.2153Z" fill="#FF61F6"/>
<path d="M180.439 185.716C173.039 185.816 165.639 184.316 158.939 181.216C152.639 178.316 147.439 173.516 143.839 167.616C140.139 161.516 138.339 153.916 138.339 144.816C138.239 137.416 140.139 130.116 143.839 123.716C147.639 117.216 153.139 111.816 159.739 108.216C166.739 104.316 175.139 102.416 185.039 102.416C185.539 102.416 186.239 102.416 187.139 102.516C188.039 102.616 189.039 102.616 190.239 102.716V71.1155C190.239 70.4155 190.539 70.0155 191.239 70.0155H211.539C212.039 69.9155 212.439 70.3155 212.539 70.7155C212.539 70.8155 212.539 70.9155 212.539 70.9155V166.116C212.539 167.916 212.639 169.916 212.739 172.116C212.939 174.216 213.039 176.216 213.139 177.916C213.139 178.616 212.839 179.216 212.139 179.516C206.939 181.716 201.439 183.316 195.839 184.316C190.739 185.216 185.639 185.716 180.439 185.716ZM190.239 165.716V121.716C189.339 121.516 188.439 121.316 187.539 121.216C186.439 121.116 185.339 121.016 184.239 121.016C180.339 121.016 176.439 121.816 172.939 123.616C169.539 125.316 166.639 127.816 164.439 131.016C162.239 134.216 161.139 138.516 161.139 143.716C161.039 147.216 161.639 150.716 162.839 154.016C163.839 156.716 165.339 159.116 167.339 161.116C169.239 162.916 171.539 164.316 174.139 165.116C176.839 166.016 179.639 166.416 182.439 166.416C183.939 166.416 185.339 166.316 186.639 166.216C187.939 166.316 189.039 166.116 190.239 165.716Z" fill="#FF61F6"/>
</svg>

        </g>
         
        <g transform="translate(300, 0)">
          <svg xmlns="http://www.w3.org/2000/svg" width="256" height="256" fill="none" viewBox="0 0 256 256"><rect width="256" height="256" fill="#242938" rx="60"/><g clip-path="url(#clip0_4_180)"><path fill="#0ACF83" d="M94.3467 228C112.747 228 127.68 213.067 127.68 194.667V161.333H94.3467C75.9467 161.333 61.0133 176.267 61.0133 194.667C61.0133 213.067 75.9467 228 94.3467 228Z"/><path fill="#A259FF" d="M61.0133 128C61.0133 109.6 75.9467 94.6667 94.3467 94.6667H127.68V161.333H94.3467C75.9467 161.333 61.0133 146.4 61.0133 128Z"/><path fill="#F24E1E" d="M61.0133 61.3333C61.0133 42.9333 75.9467 28 94.3467 28H127.68V94.6667H94.3467C75.9467 94.6667 61.0133 79.7333 61.0133 61.3333Z"/><path fill="#FF7262" d="M127.68 28H161.013C179.413 28 194.347 42.9333 194.347 61.3333C194.347 79.7333 179.413 94.6667 161.013 94.6667H127.68V28Z"/><path fill="#1ABCFE" d="M194.347 128C194.347 146.4 179.413 161.333 161.013 161.333C142.613 161.333 127.68 146.4 127.68 128C127.68 109.6 142.613 94.6667 161.013 94.6667C179.413 94.6667 194.347 109.6 194.347 128Z"/></g><defs><clipPath id="clip0_4_180"><rect width="133.36" height="200" fill="#fff" transform="translate(61 28)"/></clipPath></defs></svg>
        </g>
         
        <g transform="translate(600, 0)">
          <svg width="256" height="256" viewBox="0 0 256 256" fill="none" xmlns="http://www.w3.org/2000/svg">
<rect width="256" height="256" rx="60" fill="#242938"/>
<path d="M128.001 30C72.7791 30 28 74.7708 28 130.001C28 174.184 56.6533 211.668 96.3867 224.891C101.384 225.817 103.219 222.722 103.219 220.081C103.219 217.696 103.126 209.819 103.083 201.463C75.2631 207.512 69.3927 189.664 69.3927 189.664C64.8437 178.105 58.2894 175.032 58.2894 175.032C49.2163 168.825 58.9733 168.953 58.9733 168.953C69.0151 169.658 74.3026 179.258 74.3026 179.258C83.2217 194.546 97.6965 190.126 103.403 187.571C104.301 181.107 106.892 176.696 109.752 174.199C87.5405 171.67 64.1913 163.095 64.1913 124.778C64.1913 113.86 68.0977 104.939 74.4947 97.9362C73.4564 95.4175 70.0335 85.2465 75.4635 71.4722C75.4635 71.4722 83.8609 68.7845 102.971 81.7226C110.948 79.5069 119.502 78.3958 128.001 78.3577C136.499 78.3958 145.061 79.5069 153.052 81.7226C172.139 68.7845 180.525 71.4722 180.525 71.4722C185.968 85.2465 182.544 95.4175 181.505 97.9362C187.917 104.939 191.797 113.86 191.797 124.778C191.797 163.187 168.403 171.644 146.135 174.119C149.722 177.223 152.918 183.308 152.918 192.638C152.918 206.018 152.802 216.787 152.802 220.081C152.802 222.742 154.602 225.86 159.671 224.878C199.383 211.64 228 174.169 228 130.001C228 74.7708 183.227 30 128.001 30ZM65.4536 172.453C65.2333 172.95 64.4517 173.099 63.7396 172.758C63.0143 172.432 62.6069 171.754 62.8421 171.256C63.0574 170.744 63.8406 170.602 64.5643 170.945C65.2913 171.271 65.7053 171.955 65.4536 172.453ZM70.3725 176.842C69.8956 177.285 68.9633 177.079 68.3307 176.38C67.6766 175.683 67.554 174.751 68.0376 174.302C68.5294 173.86 69.4336 174.067 70.0893 174.764C70.7434 175.47 70.8709 176.395 70.3725 176.842ZM73.7471 182.458C73.1344 182.884 72.1325 182.485 71.5132 181.595C70.9004 180.706 70.9004 179.64 71.5264 179.212C72.1474 178.785 73.1344 179.169 73.762 180.052C74.373 180.956 74.373 182.023 73.7471 182.458ZM79.4542 188.962C78.9061 189.566 77.7386 189.404 76.8841 188.579C76.0098 187.773 75.7663 186.629 76.3161 186.024C76.8709 185.418 78.045 185.589 78.9061 186.407C79.7738 187.211 80.0387 188.364 79.4542 188.962ZM86.8301 191.157C86.5883 191.941 85.4639 192.297 84.3312 191.964C83.2002 191.621 82.46 190.704 82.6885 189.912C82.9237 189.124 84.053 188.753 85.194 189.109C86.3234 189.45 87.0652 190.361 86.8301 191.157ZM95.2242 192.089C95.2523 192.913 94.2919 193.597 93.1029 193.612C91.9073 193.639 90.9402 192.971 90.9269 192.16C90.9269 191.327 91.8659 190.65 93.0615 190.63C94.2505 190.607 95.2242 191.269 95.2242 192.089ZM103.47 191.773C103.613 192.577 102.787 193.404 101.606 193.624C100.445 193.836 99.3702 193.339 99.2229 192.541C99.0788 191.716 99.92 190.89 101.079 190.676C102.262 190.471 103.32 190.955 103.47 191.773Z" fill="white"/>
</svg>

        </g>
         
        <g transform="translate(900, 0)">
          <svg xmlns="http://www.w3.org/2000/svg" width="256" height="256" fill="none" viewBox="0 0 256 256"><rect width="256" height="256" fill="#242938" rx="60"/><path fill="#2489CA" d="M33.7158 100.208C33.7158 100.208 28.9814 96.795 34.6627 92.2381L47.8994 80.402C47.8994 80.402 51.6869 76.4172 55.6915 79.8891L177.84 172.368V216.714C177.84 216.714 177.781 223.678 168.844 222.908L33.7158 100.208Z"/><path fill="#1070B3" d="M65.1997 128.792L33.7157 157.415C33.7157 157.415 30.4805 159.822 33.7157 164.123L48.3333 177.418C48.3333 177.418 51.8052 181.147 56.9341 176.905L90.3119 151.596L65.1997 128.792Z"/><path fill="#0877B9" d="M120.474 129.029L178.215 84.9391L177.84 40.83C177.84 40.83 175.374 31.2033 167.148 36.2139L90.312 106.145L120.474 129.029Z"/><path fill="#3C99D4" d="M168.844 222.968C172.198 226.4 176.262 225.276 176.262 225.276L221.259 203.103C227.019 199.177 226.21 194.305 226.21 194.305V61.8982C226.21 56.0788 220.252 54.0667 220.252 54.0667L181.253 35.267C172.731 30 167.148 36.2139 167.148 36.2139C167.148 36.2139 174.328 31.0455 177.84 40.83V215.905C177.84 217.109 177.583 218.292 177.071 219.358C176.045 221.429 173.816 223.362 168.47 222.553L168.844 222.968Z"/></svg>
        </g>
         
        <g transform="translate(1200, 0)">
          <svg width="256" height="256" viewBox="0 0 256 256" fill="none" xmlns="http://www.w3.org/2000/svg">
<rect width="256" height="256" rx="60" fill="white"/>
<rect width="256" height="256" rx="60" fill="#0A66C2"/>
<path d="M184.715 217.685H213.985C216.194 217.685 217.985 215.895 217.985 213.686L218 151.844C218 119.521 211.035 94.6755 173.262 94.6755C158.903 94.1423 145.362 101.544 138.055 113.904C137.997 114.002 137.893 114.062 137.779 114.062C137.603 114.062 137.46 113.919 137.46 113.743V101.66C137.46 99.4511 135.67 97.6602 133.46 97.6602H105.683C103.474 97.6602 101.683 99.4511 101.683 101.66V213.68C101.683 215.89 103.474 217.68 105.683 217.68H134.951C137.16 217.68 138.951 215.89 138.951 213.68V158.307C138.951 142.65 141.921 127.487 161.332 127.487C180.467 127.487 180.715 145.403 180.715 159.321V213.685C180.715 215.894 182.506 217.685 184.715 217.685Z" fill="white"/>
<path d="M38 59.6275C38 71.4921 47.7675 81.2539 59.6321 81.2539C71.4944 81.2528 81.2551 71.4853 81.2551 59.623C81.2528 47.7607 71.491 38 59.6275 38C47.763 38 38 47.763 38 59.6275Z" fill="white"/>
<path d="M44.9588 217.685H74.2659C76.4751 217.685 78.2659 215.894 78.2659 213.685V101.66C78.2659 99.4511 76.4751 97.6602 74.2659 97.6602H44.9588C42.7497 97.6602 40.9588 99.4511 40.9588 101.66V213.685C40.9588 215.894 42.7497 217.685 44.9588 217.685Z" fill="white"/>
</svg>

        </g>
         
        <g transform="translate(1500, 0)">
          <svg width="256" height="256" viewBox="0 0 256 256" fill="none" xmlns="http://www.w3.org/2000/svg">
<rect width="256" height="256" rx="60" fill="#FF6C37"/>
<path d="M169.061 88.6123L118.521 139.153L104.268 124.901C153.971 75.1986 158.882 79.5101 169.061 88.6123Z" fill="#EEEEEE"/>
<path d="M118.521 140.35C118.161 140.35 117.922 140.231 117.682 139.991L103.31 125.739C102.831 125.26 102.831 124.542 103.31 124.063C153.851 73.5211 159.12 78.3118 169.78 87.8932C170.02 88.1328 170.139 88.3724 170.139 88.7317C170.139 89.0911 170.02 89.3306 169.78 89.5694L119.239 139.991C119.12 140.231 118.76 140.35 118.521 140.35ZM105.945 124.901L118.521 137.476L167.265 88.7317C158.403 80.8266 152.414 78.4316 105.945 124.901Z" fill="#FF6C37"/>
<path d="M133.012 153.645L119.239 139.872L169.78 89.3315C183.314 102.984 163.073 125.141 133.012 153.645Z" fill="#EEEEEE"/>
<path d="M133.012 154.843C132.652 154.843 132.414 154.723 132.174 154.483L118.401 140.71C118.161 140.471 118.161 140.231 118.161 139.872C118.161 139.512 118.281 139.273 118.521 139.033L169.061 88.4927C169.54 88.0135 170.259 88.0135 170.738 88.4927C173.852 91.3668 175.529 95.4387 175.409 99.6305C175.17 112.924 160.079 129.811 133.97 154.483C133.611 154.723 133.251 154.843 133.012 154.843ZM120.916 139.872C128.58 147.656 131.815 150.771 133.012 151.968C153.133 132.806 172.654 113.164 172.774 99.6305C172.894 96.5168 171.697 93.4031 169.66 91.0074L120.916 139.872Z" fill="#FF6C37"/>
<path d="M104.508 125.26L114.688 135.44C114.927 135.68 114.927 135.919 114.688 136.159C114.568 136.279 114.568 136.279 114.449 136.279L93.3693 140.83C92.292 140.95 91.3337 140.231 91.0942 139.153C90.9744 138.554 91.214 137.956 91.5733 137.596L103.789 125.38C104.029 125.14 104.388 125.02 104.508 125.26Z" fill="#EEEEEE"/>
<path d="M93.01 142.028C91.214 142.028 89.8963 140.59 89.8963 138.793C89.8963 137.956 90.2557 137.117 90.8546 136.518L103.07 124.302C103.789 123.703 104.748 123.703 105.466 124.302L115.646 134.482C116.364 135.081 116.364 136.159 115.646 136.877C115.406 137.117 115.167 137.237 114.807 137.357L93.7287 141.908C93.4891 141.908 93.2495 142.028 93.01 142.028ZM104.149 126.577L92.4118 138.314C92.1723 138.554 92.0525 138.913 92.292 139.272C92.4118 139.632 92.7704 139.752 93.1298 139.632L112.891 135.32L104.149 126.577Z" fill="#FF6C37"/>
<path d="M195.769 60.5877C188.104 53.1625 175.768 53.4021 168.342 61.1867C160.917 68.9712 161.157 81.1871 168.941 88.6131C175.289 94.7207 184.871 95.7988 192.416 91.2476L178.762 77.5943L195.769 60.5877Z" fill="#EEEEEE"/>
<path d="M182.355 95.1996C170.978 95.1996 161.756 85.9776 161.756 74.6002C161.756 63.222 170.978 54 182.355 54C187.625 54 192.775 56.0364 196.607 59.749C196.847 59.9886 196.967 60.2281 196.967 60.5875C196.967 60.9469 196.847 61.1864 196.607 61.426L180.439 77.5941L193.134 90.2891C193.614 90.7683 193.614 91.487 193.134 91.9661C193.015 92.0859 193.015 92.0859 192.895 92.2057C189.781 94.1215 186.068 95.1996 182.355 95.1996ZM182.355 56.5155C172.295 56.5155 164.151 64.6595 164.271 74.72C164.271 84.7805 172.414 92.9244 182.475 92.8047C185.23 92.8047 187.984 92.2057 190.499 90.888L177.924 78.4326C177.684 78.193 177.565 77.9534 177.565 77.5941C177.565 77.2347 177.684 76.9951 177.924 76.7556L193.973 60.7073C190.739 57.953 186.667 56.5155 182.355 56.5155Z" fill="#FF6C37"/>
<path d="M196.128 60.9471L195.889 60.7075L178.762 77.5943L192.296 91.1279C193.614 90.2894 194.93 89.3319 196.009 88.2538C203.673 80.708 203.673 68.4921 196.128 60.9471Z" fill="#EEEEEE"/>
<path d="M192.416 92.4448C192.056 92.4448 191.817 92.325 191.577 92.0855L177.924 78.4321C177.684 78.1925 177.565 77.953 177.565 77.5936C177.565 77.2342 177.684 76.9947 177.924 76.7551L194.93 59.7485C195.41 59.2694 196.128 59.2694 196.607 59.7485L196.967 59.9881C204.991 68.0122 204.991 80.9469 197.087 89.0916C195.889 90.2887 194.571 91.3667 193.134 92.2053C192.775 92.325 192.536 92.4448 192.416 92.4448ZM180.439 77.5936L192.536 89.6897C193.494 89.0916 194.452 88.2531 195.17 87.5344C201.997 80.7073 202.356 69.5695 195.769 62.3838L180.439 77.5936Z" fill="#FF6C37"/>
<path d="M171.098 90.7674C168.223 87.8933 163.552 87.8933 160.678 90.7674L115.526 135.919L123.072 143.464L170.858 101.547C173.972 98.9113 174.211 94.2404 171.577 91.1267C171.337 91.007 171.217 90.8872 171.098 90.7674Z" fill="#EEEEEE"/>
<path d="M122.952 144.662C122.593 144.662 122.353 144.542 122.113 144.303L114.568 136.758C114.089 136.279 114.089 135.56 114.568 135.081L159.719 89.929C163.073 86.5758 168.462 86.5758 171.816 89.929C175.17 93.283 175.17 98.6719 171.816 102.026C171.697 102.146 171.577 102.265 171.457 102.385L123.67 144.303C123.551 144.542 123.311 144.662 122.952 144.662ZM117.203 135.919L123.072 141.788L170.02 100.588C172.654 98.4323 172.894 94.4801 170.738 91.8456C168.582 89.2111 164.63 88.9715 161.995 91.1269C161.876 91.2467 161.756 91.3664 161.516 91.4862L117.203 135.919Z" fill="#FF6C37"/>
<path d="M80.9139 187.3C80.4347 187.539 80.1951 188.018 80.3149 188.497L82.3513 197.121C82.8305 198.318 82.1117 199.756 80.7941 200.115C79.8358 200.474 78.7585 200.115 78.1596 199.397L64.9854 186.342L107.981 143.346L122.832 143.585L132.892 153.646C130.497 155.682 116.005 169.694 80.9139 187.3Z" fill="#EEEEEE"/>
<path d="M79.9556 201.311C78.9981 201.311 78.0398 200.952 77.4408 200.234L64.3864 187.179C64.1469 186.94 64.0271 186.7 64.0271 186.341C64.0271 185.982 64.1469 185.742 64.3864 185.502L107.382 142.507C107.622 142.267 107.981 142.147 108.221 142.147L123.072 142.387C123.431 142.387 123.67 142.507 123.909 142.746L133.97 152.806C134.21 153.046 134.329 153.405 134.329 153.764C134.329 154.124 134.21 154.363 133.85 154.603L133.012 155.322C120.317 166.459 103.07 177.598 81.6326 188.257L83.669 196.76C84.0275 198.317 83.3096 199.994 81.8722 200.832C81.1534 201.191 80.5545 201.311 79.9556 201.311ZM66.7814 186.341L79.1178 198.557C79.4764 199.156 80.1951 199.395 80.7941 199.036C81.393 198.677 81.6326 197.958 81.2732 197.359L79.2376 188.736C78.9981 187.658 79.4764 186.7 80.4347 186.221C101.633 175.562 118.76 164.544 131.335 153.645L122.473 144.782L108.7 144.542L66.7814 186.341Z" fill="#FF6C37"/>
<path d="M54.8051 196.641L65.1052 186.341L80.4347 201.671L56.0029 199.995C54.9249 199.875 54.2061 198.917 54.3259 197.838C54.3259 197.359 54.4457 196.88 54.8051 196.641Z" fill="#EEEEEE"/>
<path d="M80.4347 202.749L55.8831 201.072C54.0863 200.952 52.8884 199.396 53.0082 197.599C53.128 196.88 53.3676 196.162 53.9665 195.683L64.2666 185.383C64.7458 184.904 65.4645 184.904 65.9429 185.383L81.2732 200.713C81.6326 201.072 81.7524 201.551 81.5128 202.031C81.2732 202.51 80.9139 202.749 80.4347 202.749ZM65.1051 188.018L55.6435 197.479C55.2842 197.719 55.2842 198.318 55.6435 198.557C55.7633 198.677 55.8831 198.797 56.1227 198.797L77.321 200.234L65.1051 188.018Z" fill="#FF6C37"/>
<path d="M103.789 148.855C103.07 148.855 102.591 148.256 102.591 147.657C102.591 147.298 102.711 147.059 102.951 146.819L114.568 135.202C115.047 134.722 115.766 134.722 116.245 135.202L123.79 142.747C124.149 143.106 124.269 143.465 124.149 143.945C124.029 144.304 123.67 144.663 123.192 144.783L104.029 148.855C103.909 148.855 103.789 148.855 103.789 148.855ZM115.406 137.717L107.502 145.622L120.436 142.866L115.406 137.717Z" fill="#FF6C37"/>
<path d="M122.832 143.584L109.658 146.459C108.7 146.699 107.741 146.1 107.502 145.142C107.382 144.543 107.502 143.944 107.981 143.465L115.286 136.159L122.832 143.584Z" fill="#EEEEEE"/>
<path d="M109.418 147.657C107.741 147.657 106.424 146.34 106.424 144.663C106.424 143.825 106.783 143.106 107.262 142.508L114.568 135.202C115.047 134.722 115.766 134.722 116.245 135.202L123.79 142.747C124.149 143.106 124.269 143.465 124.149 143.945C124.029 144.304 123.67 144.663 123.192 144.783L110.017 147.657C109.778 147.657 109.538 147.657 109.418 147.657ZM115.406 137.717L108.939 144.184C108.7 144.424 108.7 144.663 108.819 144.903C108.939 145.142 109.179 145.262 109.538 145.262L120.556 142.866L115.406 137.717Z" fill="#FF6C37"/>
<path d="M196.248 72.4434C196.009 71.7254 195.17 71.3661 194.451 71.6057C193.733 71.8444 193.374 72.6829 193.614 73.4017C193.614 73.5215 193.733 73.6412 193.733 73.761C194.451 75.1985 194.213 76.9945 193.254 78.3121C192.775 78.9111 192.895 79.7496 193.374 80.2287C193.973 80.7071 194.811 80.5881 195.29 79.9892C197.087 77.7132 197.446 74.8391 196.248 72.4434Z" fill="#FF6C37"/>
</svg>

        </g>
         
        <g transform="translate(1800, 0)">
          <svg xmlns="http://www.w3.org/2000/svg" width="256" height="256" fill="none" viewBox="0 0 256 256"><rect width="256" height="256" fill="#F03C2E" rx="60"/><g clip-path="url(#clip0_7_283)"><path fill="#fff" d="M224.225 119.094L136.906 31.775C135.711 30.5787 134.291 29.6298 132.729 28.9824C131.166 28.3349 129.491 28.0017 127.8 28.0017C126.109 28.0017 124.434 28.3349 122.871 28.9824C121.309 29.6298 119.889 30.5787 118.694 31.775L100.569 49.9L123.569 72.9C128.919 71.025 135.044 72.3062 139.306 76.5687C141.335 78.6014 142.752 81.1638 143.394 83.9632C144.036 86.7626 143.878 89.6862 142.937 92.4L165.106 114.569C170.469 112.719 176.656 113.912 180.937 118.206C182.361 119.63 183.49 121.32 184.26 123.18C185.03 125.04 185.426 127.033 185.426 129.046C185.425 131.059 185.029 133.052 184.258 134.912C183.487 136.771 182.358 138.461 180.934 139.884C179.511 141.308 177.821 142.436 175.961 143.206C174.101 143.977 172.108 144.373 170.095 144.372C168.082 144.372 166.088 143.975 164.229 143.205C162.369 142.434 160.679 141.305 159.256 139.881C154.756 135.381 153.644 128.756 155.919 123.212L135.244 102.537V156.944C136.745 157.686 138.116 158.666 139.306 159.844C140.729 161.267 141.858 162.956 142.629 164.816C143.399 166.675 143.795 168.668 143.795 170.681C143.795 172.694 143.399 174.687 142.629 176.546C141.858 178.406 140.729 180.096 139.306 181.519C137.883 182.942 136.193 184.071 134.334 184.841C132.474 185.611 130.481 186.008 128.469 186.008C126.456 186.008 124.463 185.611 122.604 184.841C120.744 184.071 119.054 182.942 117.631 181.519C116.206 180.096 115.076 178.407 114.305 176.548C113.533 174.688 113.136 172.694 113.136 170.681C113.136 168.668 113.533 166.675 114.305 164.815C115.076 162.955 116.206 161.266 117.631 159.844C119.112 158.369 120.756 157.25 122.65 156.5V101.587C120.825 100.837 119.112 99.7312 117.631 98.2437C115.479 96.0943 114.016 93.3526 113.428 90.3684C112.841 87.3841 113.155 84.2924 114.331 81.4875L91.6437 58.8125L31.7687 118.625C30.5716 119.821 29.6219 121.241 28.9739 122.804C28.3259 124.367 27.9924 126.042 27.9924 127.734C27.9924 129.426 28.3259 131.102 28.9739 132.665C29.6219 134.228 30.5716 135.648 31.7687 136.844L119.094 224.156C120.289 225.352 121.709 226.301 123.271 226.949C124.834 227.596 126.509 227.929 128.2 227.929C129.891 227.929 131.566 227.596 133.129 226.949C134.691 226.301 136.111 225.352 137.306 224.156L224.225 137.375C225.422 136.179 226.372 134.759 227.02 133.196C227.668 131.633 228.001 129.958 228.001 128.266C228.001 126.574 227.668 124.898 227.02 123.335C226.372 121.772 225.422 120.352 224.225 119.156"/></g><defs><clipPath id="clip0_7_283"><rect width="200" height="200" fill="#fff" transform="translate(28 28)"/></clipPath></defs></svg>
        </g>
         
        <g transform="translate(2100, 0)">
          <svg xmlns="http://www.w3.org/2000/svg" width="256" height="256" fill="none" viewBox="0 0 256 256"><rect width="256" height="256" fill="#00B4E0" rx="60"/><path fill="#fff" d="M40.5 113.234C40.1 113.234 40 113.034 40.2 112.734L42.3 110.034C42.5 109.734 43 109.534 43.4 109.534H79.1C79.5 109.534 79.6 109.834 79.4 110.134L77.7 112.734C77.5 113.034 77 113.334 76.7 113.334L40.5 113.234Z"/><path fill="#fff" d="M25.4 122.434C25 122.434 24.9 122.234 25.1 121.934L27.2 119.234C27.4 118.934 27.9 118.734 28.3 118.734H73.9C74.3 118.734 74.5 119.034 74.4 119.334L73.6 121.734C73.5 122.134 73.1 122.334 72.7 122.334L25.4 122.434Z"/><path fill="#fff" d="M49.6 131.634C49.2 131.634 49.1 131.334 49.3 131.034L50.7 128.534C50.9 128.234 51.3 127.934 51.7 127.934H71.7C72.1 127.934 72.3 128.234 72.3 128.634L72.1 131.034C72.1 131.434 71.7 131.734 71.4 131.734L49.6 131.634Z"/><path fill="#fff" d="M153.4 111.434C147.1 113.034 142.8 114.234 136.6 115.834C135.1 116.234 135 116.334 133.7 114.834C132.2 113.134 131.1 112.034 129 111.034C122.7 107.934 116.6 108.834 110.9 112.534C104.1 116.934 100.6 123.434 100.7 131.534C100.8 139.534 106.3 146.134 114.2 147.234C121 148.134 126.7 145.734 131.2 140.634C132.1 139.534 132.9 138.334 133.9 136.934C130.3 136.934 125.8 136.934 114.6 136.934C112.5 136.934 112 135.634 112.7 133.934C114 130.834 116.4 125.634 117.8 123.034C118.1 122.434 118.8 121.434 120.3 121.434C125.4 121.434 144.2 121.434 156.7 121.434C156.5 124.134 156.5 126.834 156.1 129.534C155 136.734 152.3 143.334 147.9 149.134C140.7 158.634 131.3 164.534 119.4 166.134C109.6 167.434 100.5 165.534 92.5 159.534C85.1 153.934 80.9 146.534 79.8 137.334C78.5 126.434 81.7 116.634 88.3 108.034C95.4 98.7343 104.8 92.8343 116.3 90.7343C125.7 89.0343 134.7 90.1343 142.8 95.6343C148.1 99.1343 151.9 103.934 154.4 109.734C155 110.634 154.6 111.134 153.4 111.434Z"/><path fill="#fff" d="M186.5 166.734C177.4 166.534 169.1 163.934 162.1 157.934C156.2 152.834 152.5 146.334 151.3 138.634C149.5 127.334 152.6 117.334 159.4 108.434C166.7 98.8343 175.5 93.8343 187.4 91.7343C197.6 89.9343 207.2 90.9343 215.9 96.8343C223.8 102.234 228.7 109.534 230 119.134C231.7 132.634 227.8 143.634 218.5 153.034C211.9 159.734 203.8 163.934 194.5 165.834C191.8 166.334 189.1 166.434 186.5 166.734ZM210.3 126.334C210.2 125.034 210.2 124.034 210 123.034C208.2 113.134 199.1 107.534 189.6 109.734C180.3 111.834 174.3 117.734 172.1 127.134C170.3 134.934 174.1 142.834 181.3 146.034C186.8 148.434 192.3 148.134 197.6 145.434C205.5 141.334 209.8 134.934 210.3 126.334Z"/></svg>
        </g>
         
        <g transform="translate(0, 300)">
          <svg xmlns="http://www.w3.org/2000/svg" width="256" height="256" fill="none" viewBox="0 0 256 256"><rect width="256" height="256" fill="#242938" rx="60"/><path fill="#41B883" d="M182 50H218L128 205.25L38 50H73.55H106.85L128 86L148.7 50H182Z"/><path fill="#41B883" d="M38 50L128 205.25L218 50H182L128 143.15L73.55 50H38Z"/><path fill="#fff" d="M73.55 50L128 143.6L182 50H148.7L128 86L106.85 50H73.55Z"/></svg>
        </g>
         
        <g transform="translate(300, 300)">
          <svg width="256" height="256" viewBox="0 0 256 256" fill="none" xmlns="http://www.w3.org/2000/svg">
<rect width="256" height="256" rx="60" fill="#F0DB4F"/>
<path d="M67.3117 213.932L86.9027 202.076C90.6821 208.777 94.1202 214.447 102.367 214.447C110.272 214.447 115.256 211.355 115.256 199.327V117.529H139.314V199.667C139.314 224.584 124.708 235.926 103.398 235.926C84.1533 235.926 72.9819 225.959 67.3113 213.93" fill="#323330"/>
<path d="M152.381 211.354L171.969 200.013C177.126 208.434 183.828 214.62 195.684 214.62C205.653 214.62 212.009 209.636 212.009 202.762C212.009 194.514 205.479 191.592 194.481 186.782L188.468 184.203C171.111 176.815 159.597 167.535 159.597 147.945C159.597 129.901 173.345 116.153 194.826 116.153C210.12 116.153 221.118 121.481 229.022 135.4L210.291 147.429C206.166 140.04 201.7 137.119 194.826 137.119C187.78 137.119 183.312 141.587 183.312 147.429C183.312 154.646 187.78 157.568 198.09 162.037L204.104 164.614C224.553 173.379 236.067 182.313 236.067 202.418C236.067 224.072 219.055 235.928 196.2 235.928C173.861 235.928 159.426 225.274 152.381 211.354" fill="#323330"/>
</svg>

        </g>
         
        <g transform="translate(600, 300)">
          <svg width="256" height="256" viewBox="0 0 256 256" fill="none" xmlns="http://www.w3.org/2000/svg">
<rect width="256" height="256" rx="60" fill="url(#paint0_linear_7_245)"/>
<path d="M79.2383 68.7408C69.2524 83.3576 70.4962 102.373 78.1042 117.886L78.6637 118.991L79.0417 119.691C79.1117 119.827 79.1929 119.961 79.2648 120.093C79.3971 120.339 79.5294 120.575 79.6428 120.817L80.3705 122.089L80.7864 122.789L81.6313 124.135L82.0093 124.702C82.3874 125.307 82.8145 125.908 83.2342 126.501C83.2436 126.516 83.2568 126.533 83.2682 126.548C83.3343 126.643 83.4081 126.737 83.4572 126.832C83.8201 127.342 84.2133 127.845 84.5913 128.344L85.0109 128.888L86.0411 130.178L86.4343 130.658C86.9028 131.223 87.3817 131.781 87.8708 132.329L87.901 132.359C87.9199 132.383 87.9388 132.397 87.9577 132.421C88.4316 132.956 88.9181 133.479 89.417 133.99L89.8857 134.47L91.052 135.635L91.5283 136.096C92.0524 136.598 92.5849 137.091 93.1255 137.576L93.4279 137.84L94.8777 139.088L95.4788 139.576L96.6885 140.521L97.335 141.022L99.1836 142.373C99.2308 142.405 99.2724 142.439 99.3197 142.471C99.7544 142.774 100.195 143.067 100.637 143.36L101.208 143.747L103.272 145.033L103.843 145.36L105.393 146.244C105.676 146.399 105.966 146.547 106.249 146.694L107.357 147.261L107.612 147.386L108.066 147.609L109.823 148.437L110.196 148.626C110.874 148.927 111.557 149.216 112.245 149.493L112.744 149.694L114.677 150.423L114.919 150.51C115.633 150.762 116.352 151.002 117.074 151.229L117.594 151.387C118.35 151.614 119.059 151.885 119.819 152.03C168.109 161.02 182.14 122.494 182.14 122.494C170.359 138.126 149.447 142.246 129.635 137.659C128.884 137.47 128.156 137.249 127.423 137.028L126.871 136.839C126.157 136.616 125.446 136.379 124.743 136.134L124.45 136.026C123.821 135.799 123.195 135.563 122.573 135.317L122.044 135.105C121.363 134.832 120.687 134.546 120.017 134.247L119.613 134.066L117.904 133.253L117.413 133.011C116.969 132.788 116.528 132.559 116.089 132.325L115.207 131.852C114.673 131.56 114.145 131.258 113.623 130.947L113.088 130.644C112.392 130.229 111.704 129.794 111.024 129.359C110.835 129.236 110.653 129.106 110.466 128.981L108.997 127.987L108.525 127.647L107.136 126.626L106.519 126.153L105.266 125.155L104.707 124.702L103.147 123.379C103.094 123.331 103.034 123.284 102.958 123.233C102.403 122.736 101.856 122.226 101.318 121.713L100.856 121.26L99.6769 120.084L99.2157 119.611C98.7244 119.101 98.2424 118.582 97.7697 118.054C97.747 118.027 97.7206 118.003 97.6979 117.978C97.1983 117.421 96.7093 116.853 96.2311 116.277L95.8474 115.812L94.7889 114.483L94.4014 113.992L93.1822 112.338C82.1813 97.0558 78.2497 75.9802 87.0202 58.6699L79.2383 68.7408ZM110.237 56.4244C103.017 67.0094 103.408 81.1745 109.041 92.3682C109.983 94.2477 111.05 96.062 112.235 97.7987C113.317 99.377 114.517 101.258 115.953 102.524C116.473 103.091 117.017 103.658 117.573 104.237C117.713 104.382 117.857 104.52 118 104.666C118.54 105.201 119.092 105.724 119.656 106.233C119.679 106.252 119.7 106.274 119.724 106.293C120.36 106.858 121.009 107.406 121.673 107.938L122.112 108.285C122.772 108.805 123.447 109.306 124.134 109.79C124.152 109.805 124.171 109.82 124.191 109.834C124.493 110.047 124.805 110.249 125.113 110.453C125.261 110.552 125.4 110.656 125.548 110.748C126.041 111.071 126.541 111.383 127.047 111.684L127.259 111.809L128.582 112.565C128.737 112.654 128.895 112.731 129.054 112.814L129.999 113.302C130.047 113.327 130.094 113.345 130.139 113.368C130.776 113.689 131.417 113.992 132.073 114.285C132.213 114.347 132.356 114.404 132.5 114.464C133.024 114.691 133.553 114.911 134.088 115.12L134.768 115.374C135.251 115.553 135.736 115.725 136.224 115.89L136.881 116.103C137.575 116.324 138.261 116.6 138.985 116.723C176.269 123.014 184.879 93.7764 184.879 93.7764C177.12 105.155 162.095 110.588 146.058 106.35C145.349 106.161 144.645 105.953 143.947 105.726C143.733 105.66 143.524 105.59 143.312 105.537C142.817 105.374 142.325 105.201 141.836 105.019L141.168 104.766C140.633 104.577 140.104 104.341 139.581 104.114C139.437 104.051 139.293 103.995 139.152 103.929C138.494 103.641 137.845 103.334 137.205 103.008C136.876 102.844 136.553 102.672 136.229 102.501L135.666 102.207C135.25 101.978 134.839 101.742 134.432 101.498L134.137 101.309C133.634 101.008 133.136 100.698 132.644 100.379C132.492 100.28 132.345 100.19 132.194 100.073L131.226 99.4205C130.542 98.9365 129.871 98.4361 129.211 97.9196L128.757 97.5567C121.739 91.9126 116.174 84.2007 113.53 75.4548C110.757 66.3819 111.356 56.2032 116.176 47.9412L110.237 56.4244ZM136.303 47.2229C132.046 53.6042 131.629 61.5279 134.602 68.5745C137.717 76.054 144.1 81.923 151.549 84.7035C151.856 84.8206 152.164 84.9246 152.494 85.0305L152.903 85.1628C153.341 85.3026 153.778 85.4652 154.23 85.5521C174.818 89.6028 180.401 74.7932 181.887 72.6138C176.995 79.7871 168.775 81.509 158.689 79.0159C157.895 78.8174 157.016 78.5244 156.231 78.2485C155.244 77.8913 154.277 77.4819 153.334 77.0217C151.539 76.1415 149.837 75.0834 148.253 73.8632C139.208 66.8884 133.6 53.5853 139.49 42.7507" fill="white"/>
<path d="M90.8364 182.681L89.4415 187.626L90.8364 182.683V182.681ZM98.0116 193.414L96.4749 193.404L98.0116 193.414ZM97.6336 200.797L88.4246 200.831L97.6336 200.797ZM99.5615 193.425L98.0229 193.416L99.5615 193.425ZM98.4615 200.169L100.068 194.051L98.4615 200.169ZM132.353 171.992L129.366 186.042L132.353 171.992ZM124.669 171.992L122.401 182.489L124.669 171.992Z" fill="white"/>
<path d="M131.823 171.359H125.434C125.079 171.359 124.727 171.643 124.652 171.99L120.115 192.985C120.04 193.331 119.688 193.614 119.335 193.614H114.812C110.336 193.614 110.854 190.52 111.787 186.28L111.816 186.152L112.358 183.26L112.592 182.069L114.657 171.99C114.728 171.643 114.496 171.357 114.141 171.357H107.582C107.401 171.363 107.227 171.428 107.086 171.542C106.946 171.656 106.846 171.813 106.803 171.988L103.848 186.002C102.223 193.419 102.654 200.493 111.485 200.714L111.74 200.719H125.599C125.954 200.719 126.304 200.436 126.38 200.088L132.356 171.988C132.432 171.641 132.199 171.357 131.846 171.357L131.823 171.359ZM157.316 193.688C157.672 193.688 157.883 193.971 157.832 194.319L157.212 197.353L157.316 193.688ZM156.592 200.389L157.212 197.353L156.592 200.389ZM155.814 201.027L144.038 201.084L155.814 201.027Z" fill="white"/>
<path d="M140.223 189.783C140.218 189.45 140.596 188.879 140.951 188.879L140.153 188.866C139.775 192.484 140.223 189.783 140.223 189.783ZM144.62 201.082H144.497H144.62ZM157.316 193.688C157.672 193.688 157.883 193.971 157.832 194.319L157.11 197.846L157.316 193.688ZM147.644 201.092H147.618H147.644ZM146.075 201.08H145.985H146.075ZM145.597 201.082H145.446H145.597ZM145.13 201.082H144.998H145.13ZM146.003 201.08H145.616H146.003Z" fill="white"/>
<path d="M147.62 201.092L146.077 201.097L147.62 201.092ZM155.817 201.044L147.642 201.094L155.817 201.044ZM156.573 200.389L157.093 197.848L156.573 200.39V200.389ZM145.429 201.082H145.13H145.467H145.429ZM144.493 201.082H144.04H144.493ZM144.979 201.082H144.601H144.979ZM51.4903 189.858L52.4827 185.458L51.3486 190.486L51.2163 191.117L51.4922 189.855L51.4903 189.858ZM63.3721 171.287H56.3538C56.1724 171.294 55.9981 171.359 55.8563 171.473C55.7145 171.586 55.6126 171.741 55.5656 171.917L54.2349 177.776C54.2125 177.852 54.2088 177.932 54.224 178.01C54.2392 178.087 54.2729 178.16 54.3223 178.222C54.3716 178.284 54.4352 178.333 54.5075 178.365C54.5798 178.397 54.6588 178.411 54.7377 178.406H61.8108C62.1661 178.406 62.5177 178.122 62.5933 177.776L63.8786 171.903C63.9542 171.558 63.7274 171.274 63.3683 171.274L63.3721 171.287ZM61.8448 181.056L59.7656 190.579L61.8448 181.056ZM41.4572 212.612L47.245 212.658C45.5362 212.658 42.7142 212.626 41.4553 212.611L41.4572 212.612Z" fill="white"/>
<path d="M53.4561 181.056L52.4619 185.456L53.4561 181.056ZM61.3382 180.426H54.2632C54.0819 180.433 53.9076 180.498 53.7657 180.612C53.6239 180.725 53.5221 180.88 53.475 181.056L51.4903 189.856L51.2143 191.119L49.3242 200.103C49.2305 200.522 49.117 200.937 48.9839 201.345C48.9839 201.345 47.6608 205.277 45.4417 205.233L43.2396 205.192C43.059 205.197 42.8847 205.259 42.742 205.37C42.5992 205.481 42.4955 205.634 42.4458 205.808L40.9809 211.975C40.9577 212.051 40.9531 212.131 40.9673 212.208C40.9815 212.286 41.0142 212.359 41.0626 212.421C41.1109 212.483 41.1736 212.533 41.2453 212.566C41.3169 212.599 41.3954 212.614 41.4742 212.611L47.2638 212.658C52.8134 212.658 55.7376 209.582 57.6145 200.736L61.8674 181.078C61.943 180.733 61.7124 180.449 61.3571 180.449L61.3382 180.426ZM161.824 200.723C161.469 200.723 161.257 200.44 161.314 200.092L166.635 175.168L161.824 200.723ZM169.219 200.09L171.374 189.452L169.219 200.09Z" fill="white"/>
<path d="M161.391 200.408C161.348 200.234 161.373 199.808 161.448 199.462L163.973 187.63L161.312 200.092C161.236 200.44 161.467 200.723 161.822 200.723H162.469C162.114 200.723 161.433 200.581 161.391 200.408ZM168.801 200.581C168.608 200.657 168.158 200.723 167.803 200.723H168.449C168.63 200.716 168.803 200.65 168.943 200.536C169.083 200.422 169.181 200.265 169.224 200.09L169.353 199.459C169.283 199.806 168.975 200.504 168.786 200.581H168.801ZM170.294 194.771L171.245 190.076L170.294 194.771ZM191.29 176.837L191.583 178.047C191.665 178.393 191.44 178.674 191.086 178.676" fill="white"/>
<path d="M169.347 199.459L170.292 194.771L169.347 199.459ZM191.001 175.574L191.29 176.814L191.001 175.574ZM171.245 190.076L171.506 188.821L172.521 184.067L171.372 189.45L171.245 190.074V190.076ZM166.722 174.758L166.501 175.797L163.975 187.63L166.637 175.168L166.722 174.76V174.758Z" fill="white"/>
<path d="M191.585 178.047L191.292 176.837L190.858 174.947C190.283 172.716 188.597 171.425 184.934 171.425L168.073 171.414C167.892 171.42 167.719 171.485 167.578 171.599C167.438 171.713 167.338 171.87 167.295 172.045L167.034 173.28L166.656 175.145L161.469 199.44C161.393 199.788 161.369 200.196 161.412 200.385C161.456 200.574 162.136 200.701 162.49 200.701H167.82C168.175 200.701 168.623 200.636 168.818 200.559C169.013 200.481 169.298 199.803 169.385 199.436L171.408 189.429L173.572 179.29C173.647 178.944 173.997 178.663 174.351 178.661L191.122 178.653C191.476 178.653 191.701 178.37 191.619 178.024L191.585 178.047ZM213.177 167.097L211.886 167.102H206.518C206.321 167.114 206.13 167.168 205.955 167.26C205.781 167.352 205.629 167.48 205.508 167.635L193.638 185.025C193.438 185.318 193.209 185.275 193.128 184.931L192.254 181.099C192.207 180.924 192.106 180.768 191.964 180.655C191.822 180.542 191.648 180.477 191.466 180.47H183.836C183.48 180.47 183.269 180.748 183.367 181.09L186.769 193.07C186.867 193.41 186.873 193.971 186.788 194.317L185.276 200.115C185.25 200.189 185.243 200.268 185.256 200.346C185.269 200.424 185.301 200.497 185.349 200.559C185.397 200.621 185.46 200.67 185.532 200.702C185.604 200.734 185.683 200.747 185.762 200.74H193.322C193.678 200.74 194.041 200.457 194.128 200.116L195.64 194.319C195.758 193.911 195.944 193.525 196.188 193.178L215.479 167.598C215.693 167.314 215.578 167.084 215.222 167.087L213.2 167.101L213.177 167.097ZM152.547 182.099C152.502 182.477 152.147 182.761 151.791 182.761H142.113C141.779 182.761 141.609 182.534 141.66 182.25L141.667 182.199L141.711 182.035C142.656 179.578 144.518 177.965 148.054 177.965C152.037 177.965 152.814 179.912 152.544 182.099H152.547ZM149.708 170.932C137.29 170.932 134.347 178.47 132.697 186.078C131.045 193.833 131.188 201.086 144.038 201.086H146.075L147.644 201.08L155.821 201.031C156.001 201.023 156.172 200.957 156.311 200.843C156.45 200.729 156.548 200.573 156.59 200.398L157.832 194.327C157.904 193.979 157.672 193.695 157.316 193.695H145.763C141.17 193.695 139.804 192.474 140.306 188.885H158.774C159.076 188.879 159.35 188.696 159.458 188.409C159.477 188.358 159.496 188.303 159.503 188.248C162.244 177.909 161.458 170.94 149.712 170.94L149.708 170.932ZM91.0103 182.058L90.8364 182.676C90.8364 182.678 89.4415 187.62 89.4415 187.62L88.0465 192.561C87.9886 192.736 87.8791 192.888 87.7327 192.999C87.5862 193.109 87.4096 193.173 87.2262 193.181H79.8431C74.2444 193.181 72.8815 188.802 74.2444 182.343C75.6053 175.737 78.2799 171.629 83.7898 171.214C91.3203 170.647 92.8249 175.943 91.0103 182.056V182.058ZM96.0723 192.803C96.0723 192.803 99.5502 184.354 100.344 179.472C101.421 172.937 98.1515 163.462 85.5156 163.462C72.9515 163.462 67.4964 172.508 65.4153 182.364C63.3361 192.268 66.0617 200.956 78.5521 200.888L97.6165 200.818C97.7993 200.809 97.9749 200.744 98.1194 200.632C98.2639 200.519 98.3701 200.365 98.4236 200.19L100.03 194.07C100.056 193.996 100.063 193.916 100.051 193.839C100.039 193.761 100.007 193.688 99.9591 193.626C99.9113 193.563 99.8487 193.514 99.7769 193.482C99.7052 193.45 99.6266 193.436 99.5483 193.442L96.473 193.423C96.1705 193.421 96.0004 193.227 96.0345 192.97C96.042 192.922 96.0534 192.875 96.0723 192.826V192.803Z" fill="white"/>
<path d="M158.267 187.15C158.267 187.384 158.078 187.573 157.844 187.573C157.609 187.573 157.42 187.384 157.42 187.15C157.42 186.915 157.609 186.726 157.844 186.726C158.078 186.726 158.267 186.915 158.267 187.15Z" fill="white"/>
<defs>
<linearGradient id="paint0_linear_7_245" x1="0" y1="0" x2="256" y2="256" gradientUnits="userSpaceOnUse">
<stop stop-color="#FF5C00"/>
<stop offset="1" stop-color="#FF0F00"/>
</linearGradient>
</defs>
</svg>

        </g>
         
        <g transform="translate(900, 300)">
          <svg xmlns="http://www.w3.org/2000/svg" width="256" height="256" fill="none" viewBox="0 0 256 256"><rect width="256" height="256" fill="#242938" rx="60"/><path fill="#FF2D20" fill-rule="evenodd" d="M215.846 78.3138C215.91 78.5572 215.944 78.8083 215.944 79.0605V118.26C215.944 118.763 215.813 119.257 215.565 119.692C215.316 120.128 214.958 120.489 214.528 120.739L182.082 139.681V177.226C182.082 178.248 181.547 179.191 180.673 179.706L112.945 219.241C112.79 219.33 112.621 219.387 112.452 219.448C112.388 219.47 112.329 219.509 112.262 219.527C111.788 219.653 111.291 219.653 110.817 219.527C110.74 219.505 110.669 219.462 110.595 219.434C110.44 219.377 110.278 219.327 110.13 219.241L42.4164 179.706C41.9862 179.455 41.6288 179.094 41.3801 178.659C41.1314 178.224 41.0003 177.729 41 177.226V59.6288C41 59.3715 41.0352 59.1214 41.0986 58.8785C41.1198 58.7963 41.1691 58.7213 41.1973 58.6391C41.2501 58.4891 41.2995 58.3355 41.377 58.1961C41.4298 58.1032 41.5073 58.0282 41.5708 57.9425C41.6518 57.8281 41.7258 57.7102 41.8209 57.6102C41.9019 57.528 42.0076 57.4673 42.0993 57.3959C42.2014 57.3101 42.293 57.2172 42.4093 57.1493H42.4128L76.2714 37.3818C76.7001 37.1317 77.1861 37 77.6807 37C78.1753 37 78.6613 37.1317 79.09 37.3818L112.949 57.1493H112.956C113.068 57.2208 113.164 57.3101 113.266 57.3923C113.357 57.4637 113.459 57.528 113.54 57.6066C113.639 57.7102 113.71 57.8281 113.794 57.9425C113.854 58.0282 113.935 58.1032 113.984 58.1961C114.065 58.339 114.111 58.4891 114.168 58.6391C114.196 58.7213 114.245 58.7963 114.266 58.8821C114.331 59.1255 114.364 59.3766 114.365 59.6288V133.079L142.579 116.606V79.0569C142.579 78.8068 142.614 78.5531 142.678 78.3138C142.703 78.228 142.748 78.153 142.777 78.0708C142.833 77.9208 142.882 77.7672 142.96 77.6278C143.013 77.5349 143.09 77.4599 143.15 77.3742C143.235 77.2598 143.305 77.1419 143.404 77.0419C143.485 76.9597 143.587 76.899 143.679 76.8275C143.784 76.7418 143.876 76.6489 143.989 76.581H143.993L177.855 56.8135C178.283 56.563 178.769 56.4311 179.264 56.4311C179.759 56.4311 180.245 56.563 180.673 56.8135L214.532 76.581C214.652 76.6525 214.743 76.7418 214.849 76.824C214.937 76.8954 215.039 76.9597 215.12 77.0383C215.219 77.1419 215.289 77.2598 215.374 77.3742C215.437 77.4599 215.515 77.5349 215.564 77.6278C215.645 77.7672 215.691 77.9208 215.747 78.0708C215.779 78.153 215.825 78.228 215.846 78.3138H215.846ZM210.3 116.606V84.0086L198.451 90.9253L182.082 100.482V133.079L210.303 116.606H210.3ZM176.441 175.572V142.954L160.34 152.279L114.361 178.888V211.813L176.441 175.572ZM46.6443 64.5769V175.572L108.717 211.81V178.891L76.289 160.281L76.2784 160.274L76.2643 160.267C76.1551 160.203 76.0635 160.11 75.9613 160.031C75.8732 159.96 75.7711 159.903 75.6936 159.824L75.6866 159.814C75.595 159.724 75.5315 159.614 75.454 159.513C75.3835 159.417 75.299 159.335 75.2426 159.235L75.2386 159.224C75.1752 159.117 75.1364 158.988 75.0906 158.867C75.0448 158.76 74.9849 158.66 74.9568 158.545V158.541C74.9216 158.406 74.9145 158.263 74.9004 158.123C74.8863 158.016 74.8581 157.909 74.8581 157.802V157.795V81.0505L58.493 71.49L46.6443 64.5805V64.5769ZM77.6842 43.1624L49.4735 59.6288L77.6772 76.0951L105.884 59.6252L77.6772 43.1624H77.6842ZM92.3551 145.926L108.721 136.373V64.5769L96.8719 71.4936L80.5029 81.0504V152.847L92.3551 145.926ZM179.264 62.5941L151.056 79.0605L179.264 95.5268L207.467 79.0569L179.264 62.5941ZM176.441 100.482L160.072 90.9253L148.224 84.0086V116.606L164.589 126.159L176.441 133.079V100.482ZM111.536 173.94L152.909 149.988L173.591 138.02L145.405 121.564L112.952 140.51L83.3743 157.777L111.536 173.94Z" clip-rule="evenodd"/></svg>
        </g>
         
        <g transform="translate(1200, 300)">
          <svg xmlns="http://www.w3.org/2000/svg" width="256" height="256" fill="none" viewBox="0 0 256 256"><rect width="256" height="256" fill="#242938" rx="60"/><path fill="#ECEFF1" d="M85.9493 199.926L110.48 213.546H147.576L182.278 187.491L197.834 146.632L161.935 103.405L151.764 79.1268L102.104 80.9032L102.702 94.5228L93.1291 112.287L78.1713 141.303L75.1797 165.581L85.9493 199.926Z"/><path fill="#263238" d="M187.064 114.656C177.491 101.036 169.713 92.7463 165.525 75.5738C161.337 58.4013 166.722 63.1386 163.132 48.3347C161.337 40.6367 158.345 35.3073 155.354 31.1622C151.764 27.0171 147.576 24.6485 145.182 24.0563C139.798 21.0956 127.233 16.3583 111.677 24.6485C95.5223 32.9387 97.3172 50.7033 100.309 86.8248C100.309 89.1934 99.7105 92.1542 98.5139 94.5228C96.1206 99.8522 91.9324 104.589 88.3425 108.735C84.1543 114.656 79.9661 120.578 76.9746 127.091C69.7948 140.711 63.2134 157.883 65.0083 164.397C67.9999 163.805 105.694 220.652 105.694 221.836C108.087 221.244 118.258 221.244 127.233 221.244C139.798 220.652 146.977 220.06 157.149 222.428C157.149 220.652 156.55 218.875 156.55 217.099C156.55 213.546 157.149 210.585 157.747 206.44C158.345 203.479 158.944 200.519 159.542 196.966C153.559 202.295 142.789 208.217 132.618 209.993C123.643 211.769 108.685 208.809 101.505 199.926C102.104 199.926 103.3 199.926 103.899 199.334C105.694 198.742 107.489 198.15 108.087 196.966C109.882 194.005 108.685 191.044 107.489 189.268C106.292 187.491 97.3173 180.977 93.1291 177.425C88.9409 173.872 86.5476 172.095 84.1544 169.727C84.1544 169.727 80.5645 166.174 79.3678 164.989C78.1712 163.805 77.5729 162.621 76.9746 162.028C75.778 159.068 75.1796 155.515 75.778 150.778C76.3763 144.264 78.7695 138.934 81.7611 133.013C82.9577 130.644 85.9493 125.907 85.9493 125.907C85.9493 125.907 75.778 150.778 81.1628 158.476C81.1628 158.476 81.7611 150.778 84.1544 143.08C85.9493 137.75 88.9409 130.052 92.5307 125.907C96.1206 121.762 105.095 106.366 105.694 96.8914C105.694 92.7463 106.292 88.6012 106.292 85.6405C103.899 83.2718 145.781 77.3503 148.174 83.864C148.772 86.2326 157.149 107.55 161.935 118.801C164.328 124.131 167.32 128.868 169.115 134.789C170.91 141.303 172.106 150.185 172.106 159.068C172.106 160.844 172.106 163.805 171.508 166.766C172.705 166.766 196.039 141.895 168.517 121.17C168.517 121.17 185.269 128.868 185.868 144.264C186.466 156.699 181.081 166.766 179.885 168.542C180.483 168.542 192.449 173.872 193.047 173.872C195.441 173.872 200.227 172.095 200.227 172.095C200.826 170.319 202.62 165.581 202.62 163.805C206.809 150.185 196.637 128.276 187.064 114.656V114.656Z"/><path fill="#ECEFF1" d="M111.078 75.5738C115.374 75.5738 118.856 70.2714 118.856 63.7307C118.856 57.1899 115.374 51.8876 111.078 51.8876C106.783 51.8876 103.3 57.1899 103.3 63.7307C103.3 70.2714 106.783 75.5738 111.078 75.5738Z"/><path fill="#ECEFF1" d="M138.002 76.7581C143.62 76.7581 148.174 70.6604 148.174 63.1386C148.174 55.6167 143.62 49.519 138.002 49.519C132.385 49.519 127.831 55.6167 127.831 63.1386C127.831 70.6604 132.385 76.7581 138.002 76.7581Z"/><path fill="#212121" d="M115.424 64.5411C114.927 60.6476 112.663 57.7241 110.368 58.0111C108.074 58.2982 106.616 61.6872 107.114 65.5807C107.611 69.4741 109.874 72.3977 112.169 72.1106C114.464 71.8235 115.921 68.4345 115.424 64.5411Z"/><path fill="#212121" d="M137.404 73.2052C140.709 73.2052 143.387 69.7587 143.387 65.5072C143.387 61.2557 140.709 57.8091 137.404 57.8091C134.1 57.8091 131.421 61.2557 131.421 65.5072C131.421 69.7587 134.1 73.2052 137.404 73.2052Z"/><path fill="#FFC107" d="M216.98 195.781C214.587 194.597 210.398 192.82 206.808 187.491C205.014 184.53 205.612 176.24 202.62 172.687C200.825 170.319 198.432 171.503 197.834 171.503C192.449 172.687 179.884 180.977 171.508 171.503C170.311 170.319 168.516 168.542 165.525 168.542C162.533 168.542 161.337 169.726 160.14 172.095C158.943 174.464 158.943 176.24 158.943 182.162C158.943 186.899 158.943 192.228 158.345 196.373C157.148 206.44 155.354 212.362 155.354 218.283C155.354 224.797 157.148 228.942 159.542 230.718C161.337 232.495 164.328 233.679 170.91 233.679C177.491 233.679 181.679 231.311 185.868 227.165C188.859 224.205 191.252 223.02 199.629 217.099C206.21 212.954 216.382 207.624 218.176 205.848C219.373 204.664 221.168 204.071 221.168 200.518C221.168 197.558 218.775 196.373 216.98 195.781V195.781Z"/><path fill="#FFC107" d="M96.7189 197.558C90.7357 188.083 90.1374 186.307 85.9492 180.385C82.3593 174.464 74.5813 163.213 69.7948 163.213C66.2049 163.213 64.4099 164.989 62.0167 167.358C59.6234 169.726 57.2302 175.056 53.042 178.017C49.4521 180.977 39.2808 180.385 36.8875 183.938C34.4942 187.491 39.2808 192.821 39.2808 201.703C39.2808 205.256 36.2892 207.624 35.6909 209.993C35.0926 212.954 34.4942 214.73 35.6909 217.099C38.0841 220.652 41.0757 221.836 61.4184 225.981C72.188 228.35 82.3593 234.271 88.9408 234.864C95.5222 235.456 106.89 234.864 106.89 218.875C107.489 209.401 102.104 207.032 96.7189 197.558Z"/><path fill="#FFC107" d="M108.087 90.3777C104.497 88.0091 101.505 85.6404 101.505 82.0875C101.505 78.5346 103.899 77.3503 107.489 74.3895C108.087 73.7973 114.668 67.8758 121.25 67.8758C127.831 67.8758 135.609 72.0209 138.601 73.2052C143.986 74.3895 149.37 75.5738 148.772 79.7189C148.174 85.6404 147.576 86.8248 141.592 89.7855C137.404 90.9698 129.626 97.4835 124.241 97.4835C121.848 97.4835 118.258 97.4835 115.865 96.8914C114.07 96.2992 111.078 93.3385 108.087 90.3777V90.3777Z"/><path fill="#634703" d="M106.89 85.6405C108.087 86.8248 109.882 88.0091 111.677 88.6012C112.873 89.1934 114.668 89.7856 114.668 89.7856C117.062 89.7856 118.857 89.7856 120.053 89.7856C123.045 89.7856 127.233 88.6013 131.421 86.2326C135.609 84.4562 136.208 83.2718 139.199 82.0875C142.191 80.3111 145.182 78.5346 143.986 77.9425C142.789 77.3503 141.592 77.9425 137.404 80.3111C133.814 82.6797 130.823 83.864 127.233 85.6405C125.438 86.2326 123.045 87.4169 121.25 87.4169C119.455 87.4169 117.66 87.4169 115.865 87.4169C114.07 87.4169 112.873 86.8248 111.078 86.2326C109.882 85.6405 109.283 85.0483 108.685 85.0483C107.489 84.4562 105.095 82.0875 103.899 81.4954C103.899 81.4954 102.702 81.4954 103.3 82.0875C105.095 83.864 105.694 84.4562 106.89 85.6405Z"/><path fill="#634703" d="M124.84 72.613C125.438 73.7973 126.635 73.7973 127.233 74.3895C127.831 74.9816 128.429 74.9816 128.429 74.9816C129.028 74.3895 128.429 73.2052 127.831 73.2052C127.831 72.0209 124.84 72.0209 124.84 72.613V72.613Z"/><path fill="#634703" d="M115.267 73.7973C115.267 74.3895 116.463 74.9816 116.463 74.3895C117.062 73.7973 117.66 73.2052 118.258 73.2052C119.455 72.613 118.856 72.0209 117.062 72.0209C115.865 72.613 115.865 73.2052 115.267 73.7973V73.7973Z"/><path fill="#455A64" d="M173.303 178.609C173.303 179.201 173.303 179.793 173.303 180.385C174.5 182.754 177.491 183.346 179.884 183.346C183.474 183.346 187.064 180.977 188.859 178.609C188.859 178.017 189.457 177.424 190.056 176.832C191.252 175.056 191.851 173.872 192.449 173.279C192.449 173.279 191.851 172.687 191.851 172.095C191.252 170.911 189.457 169.726 187.064 169.134C185.269 168.542 182.278 167.95 181.081 167.95C175.696 167.358 172.705 169.134 170.91 170.911C170.91 170.911 171.508 170.911 171.508 171.503C172.705 172.687 173.303 173.872 173.303 175.648C173.901 176.832 173.303 177.424 173.303 178.609V178.609Z"/></svg>
        </g>
         
        <g transform="translate(1500, 300)">
          <svg xmlns="http://www.w3.org/2000/svg" width="256" height="256" fill="none" viewBox="0 0 256 256"><rect width="256" height="256" fill="#242938" rx="60"/><path stroke="#fff" stroke-width="10" d="M217 69H39C33.4772 69 29 73.4772 29 79V177C29 182.523 33.4772 187 39 187H217C222.523 187 227 182.523 227 177V79C227 73.4772 222.523 69 217 69Z"/><path fill="#fff" d="M54 162V94H74L94 119L114 94H134V162H114V123L94 148L74 123V162H54ZM179 162L149 129H169V94H189V129H209L179 162Z"/></svg>
        </g>
         
        <g transform="translate(1800, 300)">
          <svg width="256" height="256" viewBox="0 0 256 256" fill="none" xmlns="http://www.w3.org/2000/svg">
<rect width="256" height="256" rx="60" fill="#242938"/>
<path d="M138.787 189.333H207.559C209.743 189.334 211.889 188.764 213.781 187.681C215.673 186.599 217.243 185.042 218.335 183.166C219.427 181.291 220.001 179.164 220 176.999C219.999 174.834 219.423 172.708 218.329 170.834L172.144 91.5483C171.052 89.6736 169.482 88.1167 167.591 87.0343C165.699 85.952 163.554 85.382 161.37 85.382C159.186 85.382 157.041 85.952 155.149 87.0343C153.258 88.1167 151.688 89.6736 150.596 91.5483L138.787 111.835L115.697 72.1652C114.605 70.2908 113.034 68.7341 111.142 67.6518C109.25 66.5698 107.104 66 104.92 66C102.736 66 100.59 66.5698 98.6982 67.6518C96.8062 68.7341 95.2352 70.2908 94.1427 72.1652L36.6704 170.834C35.5771 172.708 35.001 174.834 35 176.999C34.9991 179.164 35.5733 181.291 36.665 183.166C37.7567 185.042 39.3274 186.599 41.2191 187.681C43.1107 188.764 45.2567 189.334 47.441 189.333H90.6106C107.715 189.333 120.329 181.887 129.008 167.36L150.08 131.191L161.367 111.835L195.24 169.977H150.08L138.787 189.333ZM89.9068 169.957L59.7799 169.95L104.94 92.4316L127.473 131.191L112.386 157.097C106.622 166.523 100.074 169.957 89.9068 169.957Z" fill="#00DC82"/>
</svg>

        </g>
         
        <g transform="translate(2100, 300)">
          <svg xmlns="http://www.w3.org/2000/svg" width="256" height="256" fill="none" viewBox="0 0 256 256"><rect width="256" height="256" fill="#242938" rx="60"/><path fill="#fff" d="M49.158 100.246H77.566C85.904 100.316 91.946 102.72 95.692 107.454C99.438 112.188 100.674 118.654 99.402 126.852C98.908 130.598 97.812 134.272 96.116 137.876C94.49 141.48 92.23 144.73 89.332 147.628C85.798 151.302 82.018 153.634 77.99 154.624C73.962 155.614 69.792 156.108 65.482 156.108H52.762L48.734 176.248H34L49.158 100.246V100.246ZM61.56 112.33L55.2 144.13C55.624 144.2 56.048 144.236 56.472 144.236C56.966 144.236 57.462 144.236 57.956 144.236C64.74 144.306 70.394 143.636 74.916 142.222C79.438 140.738 82.478 135.58 84.032 126.746C85.304 119.326 84.032 115.05 80.216 113.92C76.47 112.79 71.772 112.26 66.118 112.33C65.27 112.4 64.458 112.436 63.68 112.436C62.974 112.436 62.232 112.436 61.454 112.436L61.56 112.33"/><path fill="#fff" d="M116.186 80H130.814L126.68 100.246H139.824C147.032 100.388 152.402 101.872 155.936 104.698C159.54 107.524 160.6 112.896 159.116 120.81L152.014 156.108H137.174L143.958 122.4C144.664 118.866 144.452 116.358 143.322 114.874C142.192 113.39 139.754 112.648 136.008 112.648L124.242 112.542L115.55 156.108H100.922L116.186 80Z"/><path fill="#fff" d="M174.824 100.246H203.232C211.57 100.316 217.612 102.72 221.358 107.454C225.104 112.188 226.34 118.654 225.068 126.852C224.574 130.598 223.478 134.272 221.782 137.876C220.156 141.48 217.896 144.73 214.998 147.628C211.464 151.302 207.684 153.634 203.656 154.624C199.628 155.614 195.458 156.108 191.148 156.108H178.428L174.4 176.248H159.666L174.824 100.246V100.246ZM187.226 112.33L180.866 144.13C181.29 144.2 181.714 144.236 182.138 144.236C182.632 144.236 183.128 144.236 183.622 144.236C190.406 144.306 196.06 143.636 200.582 142.222C205.104 140.738 208.144 135.58 209.698 126.746C210.97 119.326 209.698 115.05 205.882 113.92C202.136 112.79 197.438 112.26 191.784 112.33C190.936 112.4 190.124 112.436 189.346 112.436C188.64 112.436 187.898 112.436 187.12 112.436L187.226 112.33"/></svg>
        </g>
         
        <g transform="translate(0, 600)">
          <svg xmlns="http://www.w3.org/2000/svg" width="256" height="256" fill="none" viewBox="0 0 256 256"><rect width="256" height="256" fill="#242938" rx="60"/><g clip-path="url(#clip0_7_147)"><path fill="#fff" fill-rule="evenodd" d="M203.801 178.21C194.011 177.938 186.416 178.941 180.051 181.619C178.218 182.355 175.277 182.355 175.035 184.662C176.015 185.63 176.133 187.214 176.992 188.556C178.459 190.991 181.033 194.271 183.357 195.973L191.191 201.571C195.965 204.488 201.351 206.193 206.002 209.113C208.696 210.817 211.388 213.007 214.082 214.834C215.454 215.807 216.285 217.392 218 217.997V217.629C217.144 216.538 216.897 214.957 216.044 213.735L212.367 210.209C208.82 205.465 204.41 201.325 199.636 197.922C195.718 195.245 187.152 191.596 185.56 187.097L185.319 186.824C188.008 186.552 191.191 185.605 193.764 184.875C197.929 183.784 201.721 184.024 206.002 182.93L211.882 181.226V180.135C209.678 177.946 208.087 175.025 205.763 172.959C199.521 167.606 192.661 162.373 185.56 157.994C181.766 155.562 176.868 153.977 172.829 151.913C171.356 151.182 168.911 150.817 168.055 149.601C165.846 146.929 164.625 143.397 163.034 140.232L152.997 119.064C150.794 114.319 149.444 109.574 146.755 105.195C134.144 84.5124 120.431 71.9828 99.375 59.6932C94.8477 57.1382 89.4616 56.0393 83.7353 54.7032L74.5546 54.2124C72.5928 53.3616 70.6364 51.0493 68.9216 49.9531C61.9441 45.5739 43.9475 36.0847 38.8029 48.5897C35.4966 56.4974 43.7006 64.2824 46.4855 68.299C48.5708 71.0966 51.2597 74.2597 52.7332 77.4228C53.5563 79.4897 53.8307 81.682 54.6895 83.8717C56.6458 89.2243 58.4842 95.1878 61.0551 100.178C62.427 102.733 63.8675 105.413 65.5824 107.723C66.5619 109.086 68.2768 109.67 68.6417 111.859C66.9268 114.294 66.8089 117.94 65.8293 120.986C61.42 134.734 63.1349 151.766 69.377 161.888C71.3389 164.928 75.9622 171.622 82.2345 169.065C87.744 166.875 86.5148 159.941 88.1062 153.857C88.4766 152.399 88.2297 151.425 88.9623 150.449V150.722L93.9834 160.819C97.7781 166.78 104.391 172.986 109.897 177.125C112.833 179.315 115.16 183.089 118.831 184.425V184.057H118.59C117.854 182.966 116.751 182.475 115.772 181.624C113.569 179.435 111.121 176.757 109.406 174.325C104.267 167.513 99.7399 159.968 95.6983 152.183C93.7365 148.412 92.0216 144.275 90.4357 140.504C89.6949 139.043 89.6949 136.85 88.4739 136.125C86.6355 138.797 83.9466 141.115 82.5939 144.398C80.2672 149.628 80.0257 156.077 79.1697 162.769C78.6758 162.891 78.8953 162.769 78.6758 163.041C74.7631 162.071 73.4132 158.051 71.9453 154.648C68.274 146.01 67.6594 132.141 70.8422 122.164C71.6983 119.609 75.375 111.579 73.9071 109.146C73.1662 106.834 70.7242 105.498 69.3743 103.671C67.7829 101.359 66.0735 98.4409 64.9705 95.8859C62.0346 89.0689 60.5667 81.5293 57.3812 74.7151C55.9077 71.552 53.3396 68.2662 51.257 65.3486C48.9303 62.0628 46.3648 59.7505 44.5265 55.8593C43.9146 54.4959 43.0585 52.3309 44.0381 50.8693C44.2795 49.8959 44.7734 49.5059 45.7475 49.2878C47.3389 47.9244 51.8716 49.6532 53.463 50.3785C57.9903 52.2054 61.7849 53.907 65.5796 56.4592C67.2945 57.6754 69.1329 59.9877 71.3361 60.5985H73.9098C77.8279 61.4493 82.2317 60.8712 85.9002 61.9619C92.3893 64.0343 98.2637 67.0719 103.532 70.3604C119.567 80.4577 132.792 94.8143 141.725 111.971C143.193 114.769 143.805 117.324 145.155 120.244C147.729 126.208 150.912 132.289 153.477 138.132C156.051 143.85 158.498 149.694 162.17 154.438C164.008 156.993 171.35 158.329 174.654 159.668C177.104 160.759 180.896 161.741 183.105 163.077C187.264 165.632 191.427 168.552 195.342 171.35C197.298 172.806 203.423 175.849 203.787 178.276L203.801 178.21ZM78.9584 72.4873C77.267 72.4724 75.5809 72.6769 73.9427 73.0954V73.3681H74.1842C75.1637 75.315 76.8786 76.6538 78.1023 78.3581L80.9202 84.1989L81.1616 83.9262C82.8765 82.71 83.7353 80.7631 83.7353 77.8454C83 76.9947 82.8793 76.1412 82.2674 75.2904C81.5321 74.0743 79.9407 73.4635 78.9584 72.4928V72.4873Z" clip-rule="evenodd"/></g><defs><clipPath id="clip0_7_147"><rect width="180" height="180" fill="#fff" transform="translate(38 38)"/></clipPath></defs></svg>
        </g>
         
        <g transform="translate(300, 600)">
          <svg xmlns="http://www.w3.org/2000/svg" width="256" height="256" fill="none" viewBox="0 0 256 256"><rect width="256" height="256" fill="#E14E1D" rx="60"/><path fill="#fff" d="M48 38L56.6098 134.593H167.32L163.605 176.023L127.959 185.661L92.38 176.037L90.0012 149.435H57.9389L62.5236 200.716L127.951 218.888L193.461 200.716L202.244 102.655H85.8241L82.901 69.9448H205.041H205.139L208 38H48Z"/><path fill="#EBEBEB" d="M128 38H48L56.6098 134.593H128V102.655H85.8241L82.901 69.9448H128V38Z"/><path fill="#EBEBEB" d="M128 185.647L127.959 185.661L92.38 176.037L90.0012 149.435H57.9388L62.5236 200.716L127.951 218.888L128 218.874V185.647Z"/></svg>
        </g>
         
        <g transform="translate(600, 600)">
          <svg width="256" height="256" viewBox="0 0 256 256" fill="none" xmlns="http://www.w3.org/2000/svg">
<rect width="256" height="256" rx="60" fill="#0277BD"/>
<path d="M53.7527 102.651L56.6155 134.593H128.096V102.651H53.7527Z" fill="#EBEBEB"/>
<path d="M128.095 38H127.985H48L50.9036 69.9423H128.095V38Z" fill="#EBEBEB"/>
<path d="M128.095 218.841V185.608L127.955 185.645L92.3813 176.04L90.1072 150.564H72.821H58.0425L62.5175 200.718L127.948 218.882L128.095 218.841Z" fill="#EBEBEB"/>
<path d="M167.318 134.593L163.61 176.019L127.985 185.635V218.866L193.468 200.718L193.948 195.321L201.454 111.229L202.233 102.651L208 38H127.985V69.9423H172.994L170.088 102.651H127.985V134.593H167.318Z" fill="white"/>
</svg>

        </g>
         
        <g transform="translate(900, 600)">
          <svg xmlns="http://www.w3.org/2000/svg" width="256" height="256" fill="none" viewBox="0 0 256 256"><rect width="256" height="256" fill="#242938" rx="60"/><path fill="url(#paint0_linear_2_47)" d="M127.279 29C76.5066 29 79.6772 51.018 79.6772 51.018L79.7338 73.8284H128.185V80.6772H60.4893C60.4893 80.6772 28 76.9926 28 128.222C28 179.452 56.3573 177.636 56.3573 177.636H73.2812V153.863C73.2812 153.863 72.369 125.506 101.186 125.506H149.24C149.24 125.506 176.239 125.942 176.239 99.4123V55.5461C176.239 55.5461 180.338 29 127.279 29ZM100.563 44.339C105.384 44.339 109.28 48.2351 109.28 53.0556C109.28 57.8761 105.384 61.7723 100.563 61.7723C95.7426 61.7723 91.8465 57.8761 91.8465 53.0556C91.8465 48.2351 95.7426 44.339 100.563 44.339Z"/><path fill="url(#paint1_linear_2_47)" d="M128.721 227.958C179.493 227.958 176.323 205.941 176.323 205.941L176.266 183.13H127.815V176.281H195.511C195.511 176.281 228 179.966 228 128.736C228 77.5062 199.643 79.323 199.643 79.323H182.719V103.096C182.719 103.096 183.631 131.453 154.814 131.453H106.76C106.76 131.453 79.7607 131.016 79.7607 157.546V201.412C79.7607 201.412 75.6615 227.958 128.721 227.958ZM155.437 212.619C150.616 212.619 146.72 208.723 146.72 203.903C146.72 199.082 150.616 195.186 155.437 195.186C160.257 195.186 164.154 199.082 164.154 203.903C164.154 208.723 160.257 212.619 155.437 212.619Z"/><defs><linearGradient id="paint0_linear_2_47" x1="47.22" x2="146.333" y1="46.896" y2="145.02" gradientUnits="userSpaceOnUse"><stop stop-color="#387EB8"/><stop offset="1" stop-color="#366994"/></linearGradient><linearGradient id="paint1_linear_2_47" x1="108.056" x2="214.492" y1="109.905" y2="210.522" gradientUnits="userSpaceOnUse"><stop stop-color="#FFE052"/><stop offset="1" stop-color="#FFC331"/></linearGradient></defs></svg>
        </g>
         
        <g transform="translate(1200, 600)">
          <svg xmlns="http://www.w3.org/2000/svg" width="256" height="256" fill="none" viewBox="0 0 256 256"><rect width="256" height="256" fill="#CD6799" rx="60"/><g clip-path="url(#clip0_137_201)"><path fill="#fff" d="M200.107 139.163C193.133 139.199 187.073 140.879 181.998 143.361C180.136 139.674 178.274 136.388 177.945 133.978C177.58 131.167 177.142 129.451 177.58 126.092C178.018 122.733 179.99 117.951 179.953 117.586C179.917 117.22 179.515 115.505 175.499 115.468C171.483 115.432 168.015 116.235 167.613 117.294C167.211 118.352 166.445 120.762 165.934 123.245C165.24 126.896 157.901 139.93 153.703 146.757C152.352 144.092 151.184 141.755 150.928 139.893C150.563 137.082 150.125 135.366 150.563 132.007C151.001 128.648 152.973 123.865 152.936 123.5C152.9 123.135 152.498 121.419 148.482 121.383C144.466 121.346 140.997 122.149 140.596 123.208C140.194 124.267 139.756 126.75 138.916 129.159C138.077 131.569 128.329 153.329 125.773 158.951C124.459 161.835 123.327 164.135 122.524 165.705C122.524 165.705 122.487 165.815 122.378 165.997C121.684 167.348 121.282 168.078 121.282 168.078C121.282 168.078 121.282 168.078 121.282 168.115C120.735 169.101 120.15 170.013 119.858 170.013C119.639 170.013 119.238 167.385 119.931 163.807C121.392 156.249 124.86 144.493 124.824 144.092C124.824 143.873 125.481 141.828 122.56 140.769C119.712 139.71 118.69 141.463 118.434 141.463C118.179 141.463 117.996 142.084 117.996 142.084C117.996 142.084 121.173 128.867 111.936 128.867C106.167 128.867 98.2081 135.183 94.2651 140.879C91.7824 142.23 86.4885 145.114 80.8295 148.217C78.6755 149.422 76.4484 150.627 74.3673 151.759C74.2213 151.613 74.0753 151.43 73.9292 151.284C62.7573 139.345 42.0928 130.912 42.969 114.884C43.2976 109.042 45.3056 93.7083 82.655 75.0883C113.396 59.9368 137.858 64.1354 142.093 73.4454C148.153 86.7349 128.986 111.415 97.2224 114.993C85.1012 116.344 78.7485 111.671 77.1421 109.919C75.4626 108.093 75.2071 107.984 74.5864 108.349C73.5641 108.896 74.2213 110.539 74.5864 111.488C75.5356 113.971 79.4422 118.352 86.0504 120.506C91.892 122.405 106.094 123.464 123.29 116.819C142.531 109.371 157.573 88.6699 153.155 71.3278C148.738 53.7302 119.53 47.9251 91.892 57.7462C75.4626 63.5878 57.6459 72.7882 44.831 84.7634C29.6065 99.0022 27.1968 111.379 28.1826 116.563C31.724 134.964 57.0983 146.939 67.2479 155.811C66.7368 156.103 66.2622 156.359 65.8606 156.578C60.7857 159.097 41.4356 169.21 36.6163 179.908C31.1399 192.029 37.4926 200.718 41.6912 201.886C54.7251 205.501 68.1242 199.002 75.3166 188.268C82.509 177.534 81.6328 163.588 78.3104 157.199C78.2739 157.126 78.2374 157.053 78.1643 156.98C79.4787 156.213 80.8295 155.41 82.1439 154.643C84.7361 153.11 87.2917 151.686 89.4823 150.517C88.241 153.913 87.3283 157.965 86.8901 163.807C86.3425 170.671 89.1537 179.579 92.8412 183.084C94.4842 184.617 96.4192 184.654 97.6605 184.654C101.969 184.654 103.904 181.076 106.058 176.841C108.686 171.656 111.06 165.632 111.06 165.632C111.06 165.632 108.102 181.916 116.134 181.916C119.055 181.916 122.012 178.119 123.327 176.184C123.327 176.22 123.327 176.22 123.327 176.22C123.327 176.22 123.4 176.111 123.546 175.855C123.838 175.38 124.02 175.088 124.02 175.088C124.02 175.088 124.02 175.052 124.02 175.015C125.189 172.971 127.817 168.334 131.724 160.63C136.762 150.7 141.618 138.287 141.618 138.287C141.618 138.287 142.056 141.317 143.553 146.355C144.429 149.313 146.255 152.562 147.715 155.702C146.547 157.345 145.817 158.257 145.817 158.257C145.817 158.257 145.817 158.257 145.853 158.294C144.904 159.535 143.882 160.886 142.75 162.2C138.77 166.947 134.024 172.387 133.367 173.957C132.6 175.819 132.783 177.169 134.243 178.265C135.302 179.068 137.2 179.177 139.135 179.068C142.713 178.812 145.233 177.936 146.474 177.388C148.409 176.695 150.673 175.636 152.79 174.066C156.697 171.182 159.07 167.056 158.851 161.616C158.741 158.622 157.755 155.629 156.551 152.817C156.916 152.306 157.244 151.795 157.609 151.284C163.78 142.266 168.562 132.372 168.562 132.372C168.562 132.372 169 135.402 170.497 140.441C171.227 142.996 172.724 145.771 174.039 148.473C168.234 153.183 164.656 158.659 163.378 162.237C161.078 168.882 162.867 171.875 166.262 172.569C167.796 172.898 169.986 172.168 171.593 171.474C173.637 170.817 176.047 169.685 178.347 168.005C182.253 165.121 186.014 161.105 185.795 155.665C185.685 153.183 185.028 150.736 184.115 148.363C189.044 146.319 195.397 145.187 203.502 146.136C220.881 148.181 224.313 159.024 223.655 163.588C222.998 168.151 219.347 170.634 218.142 171.401C216.938 172.168 216.536 172.423 216.646 172.971C216.792 173.774 217.376 173.737 218.398 173.591C219.822 173.336 227.525 169.904 227.854 161.507C228.402 150.773 218.179 139.053 200.107 139.163ZM66.0431 184.362C60.2746 190.641 52.2425 193.015 48.7741 191.007C45.0501 188.852 46.5105 179.579 53.5933 172.934C57.9015 168.882 63.4509 165.121 67.1384 162.821C67.9781 162.31 69.2195 161.58 70.7164 160.667C70.9719 160.521 71.118 160.448 71.118 160.448C71.41 160.265 71.7021 160.083 71.9942 159.9C74.5864 169.393 72.1037 177.754 66.0431 184.362ZM108.029 155.811C106.021 160.704 101.823 173.226 99.2669 172.533C97.0763 171.948 95.7255 162.456 98.8288 153.073C100.399 148.363 103.721 142.741 105.656 140.55C108.796 137.045 112.264 135.877 113.104 137.301C114.163 139.163 109.271 152.744 108.029 155.811ZM142.677 172.387C141.837 172.825 141.034 173.117 140.669 172.898C140.413 172.752 141.034 172.168 141.034 172.168C141.034 172.168 145.379 167.494 147.095 165.377C148.08 164.135 149.249 162.675 150.49 161.032C150.49 161.178 150.49 161.361 150.49 161.507C150.49 167.093 145.087 170.853 142.677 172.387ZM169.402 166.289C168.781 165.851 168.891 164.391 170.972 159.827C171.775 158.038 173.674 155.045 176.923 152.16C177.288 153.329 177.544 154.46 177.507 155.519C177.471 162.566 172.432 165.194 169.402 166.289Z"/></g><defs><clipPath id="clip0_137_201"><rect width="200" height="149.909" fill="#fff" transform="translate(28 53)"/></clipPath></defs></svg>
        </g>
         
        <g transform="translate(1500, 600)">
          <svg xmlns="http://www.w3.org/2000/svg" width="256" height="256" fill="none" viewBox="0 0 256 256"><rect width="256" height="256" fill="#242938" rx="60"/><path fill="url(#paint0_linear_2_119)" fill-rule="evenodd" d="M83 110C88.9991 86.0009 104.001 74 128 74C164 74 168.5 101 186.5 105.5C198.501 108.501 209 104.001 218 92C212.001 115.999 196.999 128 173 128C137 128 132.5 101 114.5 96.5C102.499 93.4991 92 97.9991 83 110ZM38 164C43.9991 140.001 59.0009 128 83 128C119 128 123.5 155 141.5 159.5C153.501 162.501 164 158.001 173 146C167.001 169.999 151.999 182 128 182C92 182 87.5 155 69.5 150.5C57.4991 147.499 47 151.999 38 164Z" clip-rule="evenodd"/><defs><linearGradient id="paint0_linear_2_119" x1="86.5" x2="163.5" y1="74" y2="185.5" gradientUnits="userSpaceOnUse"><stop stop-color="#32B1C1"/><stop offset="1" stop-color="#14C6B7"/></linearGradient></defs></svg>
        </g>
         
        <g transform="translate(1800, 600)">
          <svg xmlns="http://www.w3.org/2000/svg" width="256" height="256" fill="none" viewBox="0 0 256 256"><rect width="256" height="256" fill="#007ACC" rx="60"/><path fill="#fff" d="M56.6112 128.849L56.5299 139.333H73.1902H89.8505L89.8505 186.673V234.012H101.635H113.419V186.673L113.419 139.333H130.079H146.739V129.052C146.739 123.363 146.618 118.609 146.455 118.487C146.333 118.325 126.056 118.243 101.472 118.284L56.7331 118.406L56.6112 128.849Z"/><path fill="#fff" d="M206.567 118.108C213.068 119.734 218.026 122.619 222.577 127.332C224.934 129.852 228.428 134.444 228.713 135.541C228.794 135.866 217.66 143.343 210.915 147.528C210.671 147.691 209.695 146.634 208.598 145.009C205.307 140.214 201.853 138.141 196.57 137.776C188.809 137.247 183.811 141.311 183.852 148.097C183.852 150.088 184.136 151.266 184.949 152.892C186.655 156.427 189.825 158.54 199.781 162.847C218.107 170.731 225.949 175.932 230.826 183.327C236.271 191.576 237.49 204.742 233.792 214.535C229.729 225.181 219.651 232.414 205.469 234.812C201.081 235.584 190.678 235.462 185.965 234.609C175.684 232.78 165.932 227.701 159.918 221.037C157.561 218.436 152.969 211.65 153.254 211.162C153.375 211 154.432 210.35 155.61 209.659C156.748 209.009 161.056 206.53 165.119 204.173L172.474 199.906L174.018 202.182C176.172 205.473 180.885 209.984 183.73 211.487C191.897 215.795 203.113 215.185 208.639 210.228C210.996 208.074 211.971 205.839 211.971 202.548C211.971 199.581 211.605 198.281 210.061 196.046C208.07 193.202 204.007 190.804 192.466 185.806C179.26 180.117 173.571 176.582 168.37 170.974C165.363 167.724 162.518 162.522 161.34 158.174C160.365 154.558 160.121 145.496 160.893 141.839C163.615 129.08 173.246 120.181 187.143 117.539C191.654 116.686 202.137 117.011 206.567 118.108Z"/></svg>
        </g>
         
        <g transform="translate(2100, 600)">
          <svg xmlns="http://www.w3.org/2000/svg" width="256" height="256" fill="none" viewBox="0 0 256 256"><rect width="256" height="256" fill="#65AFFF" rx="60"/><path fill="#000" d="M165.536 25L128.006 83.79H53L90.5034 25H165.536Z" opacity=".45"/><path fill="#000" d="M128.006 83.79H203.039L165.536 25H90.5034L128.006 83.79Z" opacity=".6"/><path fill="#000" d="M90.5034 142.557L128.006 83.79L90.5034 25L53 83.79L90.5034 142.557Z" opacity=".8"/><path fill="#000" d="M90.8667 230.742L128.396 171.952H203.429L165.899 230.742H90.8667Z" opacity=".45"/><path fill="#000" d="M128.396 171.952H53.3633L90.8664 230.742H165.899L128.396 171.952Z" opacity=".6"/><path fill="#000" d="M165.899 113.185L128.396 171.952L165.899 230.742L203.428 171.952L165.899 113.185Z" opacity=".8"/></svg>
        </g>
        
  </svg>
  